# xmcd CD database file
#
# Track frame offsets:
#	150
#	15838
#	30849
#	48238
#	67306
#	85319
#	102611
#	119393
#	137299
#	155425
#	172113
#
# Disc length: 2547 seconds
#
# Revision: 6
# Processed by: cddbd v1.5.1PL2 Copyright (c) Steve Scherf et al.
# Submitted via: CDex 1.51
#
DISCID=8709f10b
DTITLE=中山美穂 - Miho Nakayama Collection
DYEAR=1987
DGENRE=JPop
TTITLE0=「C」
TTITLE1=生意気
TTITLE2=Be-Bop-Highschool
TTITLE3=色・ホワイトブレンド
TTITLE4=クローズ・アップ
TTITLE5=ＪＩＮＧＩ・愛してもらいます
TTITLE6=ツイてるね　ノッてるね
TTITLE7=WAKUWAKUさせて
TTITLE8=「派手!!!」
TTITLE9=50/50
TTITLE10=Catch Me
EXTD=YEAR: 1987
EXTT0=
EXTT1=
EXTT2=
EXTT3=
EXTT4=
EXTT5=
EXTT6=
EXTT7=
EXTT8=
EXTT9=
EXTT10=
PLAYORDER=
